# xmcd
#
# Track frame offsets: 
#        150
#        13102
#        26160
#        43712
#        64770
#        86077
#        106410
#        128342
#        148125
#        161147
#        179037
#
# Disc length: 2564 seconds
#
# Revision: 2
# Processed by: cddbd v1.5.1PL0 Copyright (c) Steve Scherf et al.
# Submitted via: ExactAudioCopy v0.90b4
#
DISCID=9b0a020b
DTITLE=Mississippi Fred McDowell and Johnny Woods - Mama Says I'm Crazy
DYEAR=2002
DGENRE=Blues
TTITLE0=Shake Em' On Down
TTITLE1=Goin' Away
TTITLE2=Mama Says I'm Crazy
TTITLE3=I Got A Woman
TTITLE4=Red Cross Store
TTITLE5=Going Down To The River
TTITLE6=Standing At The Back Door
TTITLE7=What's Going To Become Of Me
TTITLE8=Long Haired Doney
TTITLE9=John Henry
TTITLE10=I Walked All Night Long
EXTD=YEAR: 2002 ID3G: 0
EXTT0=
EXTT1=
EXTT2=
EXTT3=
EXTT4=
EXTT5=
EXTT6=
EXTT7=
EXTT8=
EXTT9=
EXTT10=
PLAYORDER=
